<svg width="44" height="38" viewBox="0 0 44 38" fill="none" xmlns="http://www.w3.org/2000/svg">
<path d="M31.375 9.84375C31.375 7.98955 30.8252 6.17699 29.795 4.63528C28.7649 3.09357 27.3007 1.89195 25.5877 1.18238C23.8746 0.472808 21.9896 0.287152 20.171 0.648888C18.3525 1.01062 16.682 1.90351 15.3709 3.21462C14.0598 4.52574 13.1669 6.19621 12.8051 8.01478C12.4434 9.83335 12.6291 11.7184 13.3386 13.4314C14.0482 15.1445 15.2498 16.6086 16.7915 17.6388C18.3332 18.6689 20.1458 19.2188 22 19.2188C24.4856 19.2162 26.8687 18.2276 28.6263 16.47C30.3839 14.7124 31.3724 12.3294 31.375 9.84375ZM22 14.5313C21.0729 14.5313 20.1666 14.2563 19.3958 13.7413C18.6249 13.2262 18.0241 12.4941 17.6693 11.6376C17.3145 10.7811 17.2217 9.83855 17.4026 8.92927C17.5834 8.01998 18.0299 7.18475 18.6854 6.52919C19.341 5.87363 20.1762 5.42719 21.0855 5.24632C21.9948 5.06545 22.9373 5.15828 23.7938 5.51307C24.6504 5.86785 25.3825 6.46866 25.8975 7.23951C26.4126 8.01037 26.6875 8.91665 26.6875 9.84375C26.6875 11.087 26.1936 12.2792 25.3146 13.1583C24.4355 14.0374 23.2432 14.5313 22 14.5313ZM33.7188 19.2188C31.8646 19.2188 30.052 19.7686 28.5103 20.7987C26.9686 21.8289 25.767 23.293 25.0574 25.0061C24.3478 26.7192 24.1622 28.6041 24.5239 30.4227C24.8856 32.2413 25.7785 33.9118 27.0896 35.2229C28.4007 36.534 30.0712 37.4269 31.8898 37.7886C33.7084 38.1503 35.5934 37.9647 37.3064 37.2551C39.0195 36.5455 40.4836 35.3439 41.5138 33.8022C42.5439 32.2605 43.0938 30.4479 43.0938 28.5938C43.0912 26.1081 42.1026 23.7251 40.345 21.9675C38.5874 20.2099 36.2044 19.2213 33.7188 19.2188ZM33.7188 33.2812C32.7917 33.2812 31.8854 33.0063 31.1145 32.4913C30.3437 31.9762 29.7429 31.2441 29.3881 30.3876C29.0333 29.531 28.9405 28.5885 29.1213 27.6793C29.3022 26.77 29.7486 25.9347 30.4042 25.2792C31.0597 24.6236 31.895 24.1772 32.8043 23.9963C33.7136 23.8155 34.6561 23.9083 35.5126 24.2631C36.3691 24.6179 37.1012 25.2187 37.6163 25.9895C38.1313 26.7604 38.4063 27.6666 38.4063 28.5938C38.4063 29.837 37.9124 31.0292 37.0333 31.9083C36.1542 32.7874 34.962 33.2812 33.7188 33.2812ZM10.2813 19.2188C8.42705 19.2188 6.61449 19.7686 5.07278 20.7987C3.53107 21.8289 2.32946 23.293 1.61988 25.0061C0.910312 26.7192 0.724656 28.6041 1.08639 30.4227C1.44813 32.2413 2.34101 33.9118 3.65213 35.2229C4.96325 36.534 6.63371 37.4269 8.45228 37.7886C10.2709 38.1503 12.1559 37.9647 13.8689 37.2551C15.582 36.5455 17.0461 35.3439 18.0763 33.8022C19.1064 32.2605 19.6563 30.4479 19.6563 28.5938C19.6537 26.1081 18.6651 23.7251 16.9075 21.9675C15.1499 20.2099 12.7669 19.2213 10.2813 19.2188ZM10.2813 33.2812C9.35415 33.2812 8.44787 33.0063 7.67702 32.4913C6.90616 31.9762 6.30536 31.2441 5.95057 30.3876C5.59578 29.531 5.50296 28.5885 5.68382 27.6793C5.86469 26.77 6.31113 25.9347 6.96669 25.2792C7.62225 24.6236 8.45748 24.1772 9.36677 23.9963C10.2761 23.8155 11.2186 23.9083 12.0751 24.2631C12.9316 24.6179 13.6637 25.2187 14.1788 25.9895C14.6938 26.7604 14.9688 27.6666 14.9688 28.5938C14.9688 29.837 14.4749 31.0292 13.5958 31.9083C12.7167 32.7874 11.5245 33.2812 10.2813 33.2812Z" fill="#FFFFFF"/>
</svg>
